<svg width="64" height="18" viewBox="0 0 64 18" fill="none" xmlns="http://www.w3.org/2000/svg">
<path d="M63.7962 0.39978H0.62207V17.3537H63.7962V0.39978Z" fill="#364556"/>
<path d="M15.4217 5.05054H13.4185V12.7039H15.4217C16.7054 12.7039 17.5125 12.1301 17.5125 10.4088V7.34556C17.5223 5.52705 16.6471 5.05054 15.4217 5.05054ZM16.1025 10.3116C16.1025 11.0604 15.8302 11.391 15.3342 11.391H14.8285V6.35364H15.3439C15.801 6.35364 16.0927 6.58704 16.0927 7.43308V10.3116H16.1025Z" fill="white"/>
<path d="M21.4902 9.3582C22.0931 9.07619 22.5015 8.54133 22.5015 7.40354V7.2285C22.5015 5.87677 21.9472 5.05017 20.5663 5.05017H18.3977V12.7035H19.7883V9.64994H20.1968L21.1595 12.7035H22.6377L21.4902 9.3582ZM21.0623 7.45217C21.0623 8.10372 20.8192 8.43436 20.3426 8.43436H19.7883V6.35328H20.3426C20.8678 6.35328 21.0623 6.67419 21.0623 7.3452V7.45217Z" fill="white"/>
<path d="M24.7283 12.7035V5.05017H23.3182V12.7035H24.7283Z" fill="white"/>
<path d="M30.0474 5.05017H28.6373L27.8399 9.17344L27.7038 10.107L27.5968 9.17344L26.7605 5.05017H25.3018L27.1008 12.7035H28.297L30.0474 5.05017Z" fill="white"/>
<path d="M34.1123 12.7035V11.4004H31.9826V9.49435H33.7817V8.20097H31.9826V6.35328H34.1123V5.05017H30.5725V12.7035H34.1123Z" fill="white"/>
<path d="M38.6352 7.00479C38.6352 5.57526 37.9253 4.98206 36.7486 4.98206C35.6011 4.98206 34.8037 5.67251 34.8037 7.20901H36.1457C36.1651 6.39213 36.3985 6.19764 36.7389 6.19764C37.1182 6.19764 37.2932 6.41158 37.2932 6.99506C37.2932 7.4813 37.1376 7.83139 36.8945 8.21065L34.862 11.4587V12.6937H38.5866V11.4684H36.3985L37.935 9.0178C38.3629 8.31762 38.6352 7.78276 38.6352 7.00479Z" fill="white"/>
<path d="M45.0526 9.3582C45.6556 9.07619 46.064 8.54133 46.064 7.40354V7.2285C46.064 5.87677 45.5097 5.05017 44.1385 5.05017H41.9699V12.7035H43.3605V9.64994H43.769L44.722 12.7035H46.2001L45.0526 9.3582ZM44.6247 7.45217C44.6247 8.10372 44.3914 8.43436 43.9051 8.43436H43.3508V6.35328H43.9051C44.4303 6.35328 44.6247 6.67419 44.6247 7.3452V7.45217Z" fill="white"/>
<path d="M50.9855 10.4571V5.05017H49.5754V10.4085C49.5754 11.167 49.4295 11.4587 48.8947 11.4587C48.3598 11.4587 48.2139 11.167 48.2139 10.4085V5.05017H46.8039V10.4571C46.8039 12.12 47.611 12.7716 48.8947 12.7716C50.1881 12.7716 50.9855 12.1103 50.9855 10.4571Z" fill="white"/>
<path d="M39.6749 11.4684H40.9099V12.7034H39.6749V11.4684Z" fill="white"/>
</svg>
