<svg width="36" height="36" viewBox="0 0 36 36" xmlns="http://www.w3.org/2000/svg">
<circle cx="18.4653" cy="17.928" r="17.5" fill="url(#paint0_linear)"/>
<path d="M24.2235 10.9282H13.5822C12.3807 10.9282 11.4653 11.8436 11.4653 13.045V23.6864C11.4653 24.8878 12.3807 25.8032 13.5822 25.8032H24.2235C25.4249 25.8032 26.3403 24.8878 26.3403 23.6864V13.045C26.3403 11.8436 25.4249 10.9282 24.2235 10.9282ZM18.9028 22.8282C21.3629 22.8282 23.3653 20.883 23.3653 18.5374C23.3653 18.1369 23.3081 17.6792 23.1937 17.3359H24.4523V23.4003C24.4523 23.6864 24.2235 23.9725 23.8802 23.9725H13.9254C13.6394 23.9725 13.3533 23.7436 13.3533 23.4003V17.2787H14.6692C14.5548 17.6792 14.4975 18.0797 14.4975 18.4801C14.4403 20.883 16.4427 22.8282 18.9028 22.8282ZM18.9028 21.1119C17.3009 21.1119 16.0423 19.8532 16.0423 18.3085C16.0423 16.7638 17.3009 15.5051 18.9028 15.5051C20.5048 15.5051 21.7634 16.7638 21.7634 18.3085C21.7634 19.9104 20.5048 21.1119 18.9028 21.1119ZM24.3951 14.9902C24.3951 15.3335 24.1091 15.6196 23.7658 15.6196H22.1639C21.8206 15.6196 21.5346 15.3335 21.5346 14.9902V13.4455C21.5346 13.1023 21.8206 12.8162 22.1639 12.8162H23.7658C24.1091 12.8162 24.3951 13.1023 24.3951 13.4455V14.9902Z" fill="white"/>
<defs>
<linearGradient id="paint0_linear" x1="8.40283" y1="31.4905" x2="31.5903" y2="7.42798" gradientUnits="userSpaceOnUse">
<stop stop-color="#EEA054"/>
<stop offset="0.502762" stop-color="#D64763"/>
<stop offset="1" stop-color="#B62A99"/>
</linearGradient>
</defs>
</svg>
