<svg width="54" height="22" viewBox="0 0 54 22" fill="none" xmlns="http://www.w3.org/2000/svg">
<path d="M53.7403 15.9105C53.7403 18.8082 51.3902 21.1582 48.4925 21.1582H27.7245C24.8268 21.1582 22.4768 18.8082 22.4768 15.9105V5.77166C22.4768 2.87394 24.8268 0.523926 27.7245 0.523926H48.4925C51.3902 0.523926 53.7403 2.87394 53.7403 5.77166V15.9105Z" fill="#364556"/>
<path d="M27.6901 16.9803V6.02634H25.5227V3.85889H31.7342V6.02634H29.5688V16.9825H27.6901V16.9803ZM37.6081 7.12598V16.9803H35.8865V16.0017C35.5235 16.8296 34.9928 17.2436 34.2922 17.2436C33.165 17.2436 32.6003 16.4517 32.6003 14.8681V7.12598H34.2943V13.5646C34.2943 14.0932 34.3241 14.4711 34.3856 14.6983C34.4939 15.091 34.7126 15.2863 35.0374 15.2863C35.3897 15.2863 35.6254 15.074 35.7421 14.6473C35.8058 14.4032 35.8398 13.9935 35.8398 13.4203V7.12598H37.6081ZM39.1218 16.9803V3.85889H40.8774V7.96027C41.1703 7.23 41.6671 6.86487 42.3655 6.86487C43.2571 6.86487 43.8409 7.50173 44.1169 8.7712C44.257 9.41231 44.327 10.5226 44.327 12.0999C44.327 13.6326 44.2506 14.728 44.0978 15.3861C43.809 16.6237 43.2189 17.2414 42.3294 17.2414C41.5864 17.2414 41.0727 16.8105 40.7903 15.9486V16.9782L39.1218 16.9803ZM41.7435 8.77757C41.2637 8.77757 40.9686 9.28281 40.8583 10.2933C40.8349 10.4971 40.8264 11.221 40.8264 12.465C40.8264 13.4245 40.8455 14.0232 40.8859 14.2609C41.0005 14.9933 41.285 15.3606 41.7435 15.3606C42.1702 15.3606 42.4292 14.9127 42.5226 14.0147C42.5459 13.8279 42.5566 13.1825 42.5566 12.0808C42.5566 10.9408 42.5481 10.2891 42.529 10.1298C42.4377 9.22974 42.1744 8.77757 41.7435 8.77757ZM48.9888 13.5986H50.6383C50.6383 13.6432 50.6404 13.709 50.6447 13.7897C50.6489 13.8725 50.6511 13.9361 50.6511 13.9807C50.6511 15.1165 50.4409 15.9423 50.0227 16.4624C49.6024 16.9803 48.9528 17.2414 48.0696 17.2414C47.1568 17.2414 46.4987 16.9251 46.0975 16.2968C45.7791 15.7958 45.5753 15.0676 45.4861 14.1081C45.4458 13.6878 45.4267 12.8959 45.4267 11.7326C45.4267 10.7964 45.4458 10.1298 45.4861 9.73286C45.5647 8.92617 45.7366 8.31479 46.0041 7.89446C46.4414 7.20877 47.1441 6.86487 48.1142 6.86487C49.0483 6.86487 49.7318 7.23637 50.1649 7.97937C50.5152 8.58015 50.6893 9.79443 50.6893 11.6201V12.3673H47.2417C47.229 12.4756 47.2226 12.6858 47.2226 12.9978C47.2226 13.7302 47.2523 14.2546 47.3139 14.5666C47.4413 15.2099 47.7024 15.5304 48.0994 15.5304C48.6938 15.5304 48.9888 14.8872 48.9888 13.5986ZM47.229 10.8049H48.9294V10.3888C48.9294 9.82202 48.8891 9.41868 48.8105 9.18092C48.6895 8.80092 48.4411 8.61199 48.0696 8.61199C47.7597 8.61199 47.5389 8.74148 47.4073 9.0026C47.2502 9.32527 47.1844 9.78806 47.212 10.3888L47.2205 10.5247C47.2269 10.6202 47.229 10.7136 47.229 10.8049Z" fill="white"/>
<path d="M3.34746 17.0546V11.4609L0.685379 3.85889H2.78065L4.31761 8.82427L5.83333 3.85889H7.86916L5.25379 11.4588V17.0546H3.34746ZM8.52088 12.1041C8.52088 10.3973 8.65038 9.18728 8.90937 8.47188C9.29573 7.41044 10.06 6.87973 11.2021 6.87973C12.342 6.87973 13.1105 7.41044 13.5011 8.47188C13.7601 9.18092 13.8896 10.391 13.8896 12.1041C13.8896 13.8151 13.7601 15.0273 13.5011 15.7342C13.1105 16.7893 12.3442 17.3179 11.2021 17.3179C10.06 17.3179 9.29573 16.7872 8.90937 15.7257C8.65038 15.0188 8.52088 13.8109 8.52088 12.1041ZM10.3317 12.2336C10.3317 13.4606 10.3381 14.1272 10.3508 14.2355C10.4421 15.1207 10.7223 15.5623 11.1893 15.5623C11.6564 15.5623 11.9429 15.1823 12.047 14.4244C12.0682 14.2588 12.0788 13.6389 12.0788 12.5669V11.601C12.0788 10.5969 12.0661 9.99185 12.0406 9.78593C11.9302 9.03232 11.6521 8.65657 11.2021 8.65657C10.7648 8.65657 10.493 8.98774 10.3826 9.65007C10.3487 9.86023 10.3296 10.4164 10.3296 11.3186L10.3317 12.2336ZM20.2179 7.14509V17.0546H18.4877V16.0696C18.1226 16.9018 17.5877 17.3179 16.885 17.3179C15.7514 17.3179 15.1824 16.5218 15.1824 14.9296V7.14509H16.8871V13.6198C16.8871 14.1506 16.9168 14.5305 16.9784 14.7577C17.0888 15.1525 17.3074 15.35 17.6344 15.35C17.9889 15.35 18.2245 15.1356 18.3434 14.7067C18.4071 14.4605 18.441 14.0508 18.441 13.4734V7.14509H20.2179Z" fill="#364556"/>
</svg>
