<svg width="22" height="18" viewBox="0 0 22 18" fill="none" xmlns="http://www.w3.org/2000/svg">
<path d="M2.51763 2.67245H5.75713L7.91679 0.772095H14.3958L16.5554 2.67245H19.7949C20.3677 2.67245 20.917 2.87267 21.3221 3.22905C21.7271 3.58544 21.9546 4.0688 21.9546 4.57281V15.9749C21.9546 16.4789 21.7271 16.9623 21.3221 17.3187C20.917 17.6751 20.3677 17.8753 19.7949 17.8753H2.51763C1.94486 17.8753 1.39554 17.6751 0.990522 17.3187C0.585506 16.9623 0.357971 16.4789 0.357971 15.9749V4.57281C0.357971 4.0688 0.585506 3.58544 0.990522 3.22905C1.39554 2.87267 1.94486 2.67245 2.51763 2.67245ZM11.1563 5.52298C9.72434 5.52298 8.35105 6.02352 7.33851 6.91449C6.32597 7.80545 5.75713 9.01386 5.75713 10.2739C5.75713 11.5339 6.32597 12.7423 7.33851 13.6333C8.35105 14.5242 9.72434 15.0248 11.1563 15.0248C12.5882 15.0248 13.9615 14.5242 14.9741 13.6333C15.9866 12.7423 16.5554 11.5339 16.5554 10.2739C16.5554 9.01386 15.9866 7.80545 14.9741 6.91449C13.9615 6.02352 12.5882 5.52298 11.1563 5.52298ZM11.1563 7.42334C12.0155 7.42334 12.8394 7.72366 13.447 8.25824C14.0545 8.79282 14.3958 9.51787 14.3958 10.2739C14.3958 11.0299 14.0545 11.7549 13.447 12.2895C12.8394 12.8241 12.0155 13.1244 11.1563 13.1244C10.2971 13.1244 9.47314 12.8241 8.86562 12.2895C8.2581 11.7549 7.91679 11.0299 7.91679 10.2739C7.91679 9.51787 8.2581 8.79282 8.86562 8.25824C9.47314 7.72366 10.2971 7.42334 11.1563 7.42334Z" fill="#E4B820"/>
</svg>
