<svg width="19" height="19" viewBox="0 0 19 19" fill="none" xmlns="http://www.w3.org/2000/svg">
<path d="M17.9995 13.7013V16.2552C18.0004 16.4923 17.9517 16.7269 17.8563 16.9442C17.7609 17.1614 17.6211 17.3564 17.4457 17.5167C17.2702 17.6769 17.0632 17.799 16.8376 17.8749C16.6121 17.9509 16.3732 17.9791 16.1361 17.9577C13.5059 17.6731 10.9794 16.778 8.75957 15.3443C6.69433 14.0373 4.94337 12.2934 3.63104 10.2366C2.18648 8.01572 1.28751 5.48722 1.00694 2.85589C0.985578 2.62048 1.01367 2.38322 1.08942 2.15922C1.16518 1.93521 1.28693 1.72937 1.44694 1.5548C1.60694 1.38023 1.80169 1.24075 2.01879 1.14525C2.23589 1.04974 2.47057 1.00031 2.7079 1.00008H5.27217C5.68698 0.996016 6.08913 1.14231 6.40366 1.41171C6.71818 1.6811 6.92362 2.05521 6.98168 2.4643C7.08991 3.28159 7.29063 4.08407 7.58001 4.85642C7.69501 5.16111 7.7199 5.49226 7.65173 5.81061C7.58355 6.12896 7.42518 6.42118 7.19537 6.65264L6.10983 7.73377C7.32662 9.86501 9.09844 11.6296 11.2384 12.8415L12.3239 11.7604C12.5563 11.5315 12.8497 11.3738 13.1694 11.3059C13.489 11.238 13.8215 11.2628 14.1274 11.3773C14.9029 11.6655 15.7087 11.8654 16.5293 11.9732C16.9445 12.0315 17.3237 12.2398 17.5948 12.5584C17.8658 12.8771 18.0099 13.2838 17.9995 13.7013Z" stroke="#748A9D" stroke-width="2" stroke-linecap="round" stroke-linejoin="round"/>
</svg>
