<svg width="36" height="36" viewBox="0 0 36 36" xmlns="http://www.w3.org/2000/svg">
<circle cx="18.4844" cy="17.928" r="17.5" fill="#F40000"/>
<path d="M26.1049 16.9771C26.1049 16.6377 26.0483 16.2417 26.0483 15.7892C25.9918 15.3367 25.9352 14.8842 25.8786 14.4882C25.7655 14.0357 25.5958 13.6963 25.2564 13.4135C24.9736 13.1306 24.5776 12.9609 24.1817 12.9044C22.8806 12.7347 20.9574 12.6781 18.3554 12.6781C15.7534 12.6781 13.7736 12.7347 12.5291 12.9044C12.1332 12.9609 11.7372 13.1306 11.4544 13.4135C11.1716 13.6963 10.9453 14.0357 10.8322 14.4882C10.719 14.8842 10.6625 15.2801 10.6625 15.7892C10.6059 16.2417 10.6059 16.6377 10.6059 16.9771C10.6059 17.3165 10.6059 17.7124 10.6059 18.2781C10.6059 18.8438 10.6059 19.2963 10.6059 19.5791C10.6059 19.9185 10.6625 20.3145 10.6625 20.767C10.719 21.2195 10.7756 21.672 10.8322 22.068C10.9453 22.5205 11.115 22.8599 11.4544 23.1427C11.7372 23.4256 12.1332 23.5953 12.5291 23.6518C13.8301 23.8215 15.7534 23.8781 18.3554 23.8781C20.9574 23.8781 22.9372 23.8215 24.1817 23.6518C24.5776 23.5953 24.9736 23.4256 25.2564 23.1427C25.5392 22.8599 25.7655 22.5205 25.8786 22.068C25.9918 21.672 26.0483 21.2761 26.0483 20.767C26.1049 20.3145 26.1049 19.9185 26.1049 19.5791C26.1049 19.2397 26.1049 18.8438 26.1049 18.2781C26.1049 17.7124 26.1049 17.2599 26.1049 16.9771ZM21.3534 18.7306L16.8847 21.5023C16.8281 21.5589 16.715 21.6155 16.6019 21.6155C16.4887 21.6155 16.4322 21.6155 16.319 21.5589C16.1493 21.4458 16.0362 21.2761 16.0362 21.0498V15.4498C16.0362 15.2236 16.1493 15.0539 16.319 14.9407C16.4887 14.8276 16.715 14.8276 16.8847 14.9407L21.3534 17.7124C21.5231 17.8256 21.6362 17.9953 21.6362 18.165C21.6362 18.3347 21.5231 18.6175 21.3534 18.7306Z" fill="white"/>
</svg>
