<svg width="20" height="20" viewBox="0 0 20 20" fill="none" xmlns="http://www.w3.org/2000/svg">
<circle cx="10" cy="10" r="9.5" stroke="#8CA4B8"/>
<path d="M9.37842 12.7085C9.37419 12.5562 9.37208 12.4419 9.37208 12.3657C9.37208 11.9172 9.43555 11.5299 9.56251 11.2041C9.65561 10.9587 9.80583 10.7111 10.0132 10.4614C10.1655 10.2795 10.4385 10.015 10.832 9.66797C11.2298 9.31673 11.488 9.03743 11.6065 8.83008C11.7249 8.62272 11.7842 8.39632 11.7842 8.15088C11.7842 7.70654 11.6107 7.31722 11.2637 6.98291C10.9167 6.64437 10.4914 6.4751 9.9878 6.4751C9.50115 6.4751 9.0949 6.62744 8.76905 6.93213C8.4432 7.23682 8.2295 7.71289 8.12794 8.36035L6.95362 8.2207C7.05941 7.35319 7.37257 6.6888 7.89307 6.22754C8.41781 5.76628 9.10971 5.53564 9.96876 5.53564C10.8786 5.53564 11.6043 5.7832 12.146 6.27832C12.6877 6.77344 12.9585 7.37223 12.9585 8.07471C12.9585 8.48096 12.8633 8.85547 12.6729 9.19824C12.4824 9.54102 12.11 9.95785 11.5557 10.4487C11.1833 10.7788 10.9399 11.0221 10.8257 11.1787C10.7114 11.3353 10.6268 11.5151 10.5718 11.7183C10.5168 11.9214 10.485 12.2515 10.4766 12.7085H9.37842ZM9.3086 15V13.6987H10.6099V15H9.3086Z" fill="#8CA4B8"/>
</svg>
