<svg width="36" height="36" viewBox="0 0 36 36" xmlns="http://www.w3.org/2000/svg">
<circle cx="17.875" cy="17.684" r="17.5" fill="#48C95F"/>
<path d="M24.811 10.7384C23.0823 9.01575 20.7774 8.05872 18.3445 8.05872C13.2866 8.05872 9.18902 12.142 9.18902 17.1824C9.18902 18.7775 9.6372 20.3725 10.4055 21.7124L9.125 26.4337L13.9909 25.1577C15.3354 25.8595 16.8079 26.2423 18.3445 26.2423C23.4024 26.2423 27.5 22.159 27.5 17.1186C27.436 14.7579 26.5396 12.4611 24.811 10.7384ZM22.7622 20.4363C22.5701 20.9467 21.6738 21.4572 21.2256 21.521C20.8415 21.5848 20.3293 21.5848 19.8171 21.4572C19.497 21.3295 19.0488 21.2019 18.5366 20.9467C16.2317 19.9897 14.7591 17.6928 14.6311 17.5014C14.503 17.3738 13.6707 16.2892 13.6707 15.1407C13.6707 13.9923 14.247 13.4819 14.439 13.2267C14.6311 12.9715 14.8872 12.9715 15.0793 12.9715C15.2073 12.9715 15.3994 12.9715 15.5274 12.9715C15.6555 12.9715 15.8476 12.9077 16.0396 13.3543C16.2317 13.8009 16.6799 14.9493 16.7439 15.0131C16.8079 15.1407 16.8079 15.2684 16.7439 15.396C16.6799 15.5236 16.6159 15.6512 16.4878 15.7788C16.3598 15.9064 16.2317 16.0978 16.1677 16.1616C16.0396 16.2892 15.9116 16.4168 16.0396 16.6082C16.1677 16.8634 16.6159 17.5652 17.3201 18.2032C18.2165 18.9689 18.9207 19.2241 19.1768 19.3517C19.4329 19.4793 19.561 19.4155 19.689 19.2879C19.8171 19.1603 20.2652 18.6499 20.3933 18.3947C20.5213 18.1394 20.7134 18.2032 20.9055 18.267C21.0976 18.3309 22.25 18.9051 22.4421 19.0327C22.6982 19.1603 22.8262 19.2241 22.8902 19.2879C22.9543 19.4793 22.9543 19.9259 22.7622 20.4363Z" fill="white"/>
</svg>
