<svg width="35" height="36" viewBox="0 0 35 36" xmlns="http://www.w3.org/2000/svg">
<circle cx="17.5" cy="17.684" r="17.5" fill="#2F89CE"/>
<path d="M8.18186 18.011L12.2052 19.5113L13.7736 24.5575C13.8418 24.8984 14.251 24.9666 14.5237 24.762L16.774 22.9209C16.9786 22.7163 17.3196 22.7163 17.5924 22.9209L21.6157 25.8531C21.8884 26.0577 22.2976 25.9213 22.3658 25.5803L25.3662 11.26C25.4344 10.9191 25.0935 10.5781 24.7525 10.7145L8.18186 17.1245C7.77271 17.2609 7.77271 17.8747 8.18186 18.011ZM13.569 18.7611L21.4793 13.9195C21.6157 13.8513 21.7521 14.0559 21.6157 14.1241L15.1374 20.1932C14.9329 20.3978 14.7283 20.6705 14.7283 21.0115L14.5237 22.6481C14.5237 22.8527 14.1828 22.9209 14.1146 22.6481L13.2963 19.6476C13.0917 19.3067 13.2281 18.8975 13.569 18.7611Z" fill="white"/>
</svg>
