<svg width="20" height="20" viewBox="0 0 20 20" fill="none" xmlns="http://www.w3.org/2000/svg">
<path d="M19.9508 6.21984C19.9054 5.19044 19.7389 4.48274 19.5005 3.8695C19.2545 3.21857 18.876 2.63579 18.3801 2.15133C17.8957 1.65932 17.3091 1.27701 16.6657 1.03485C16.0489 0.796392 15.3449 0.629926 14.3155 0.584539C13.2784 0.535309 12.9492 0.523926 10.3188 0.523926C7.68848 0.523926 7.35925 0.535309 6.32601 0.580696C5.29661 0.626082 4.58891 0.792696 3.97582 1.03101C3.32474 1.27701 2.74197 1.65548 2.2575 2.15133C1.76549 2.63579 1.38333 3.22242 1.14103 3.86581C0.902562 4.48274 0.736096 5.18659 0.69071 6.21599C0.64148 7.25308 0.630096 7.58231 0.630096 10.2127C0.630096 12.843 0.64148 13.1722 0.686866 14.2055C0.732253 15.2349 0.898866 15.9426 1.13733 16.5558C1.38333 17.2067 1.76549 17.7895 2.2575 18.274C2.74197 18.766 3.32859 19.1483 3.97198 19.3904C4.58891 19.6289 5.29277 19.7954 6.32231 19.8408C7.3554 19.8863 7.68479 19.8975 10.3151 19.8975C12.9455 19.8975 13.2747 19.8863 14.3079 19.8408C15.3373 19.7954 16.045 19.6289 16.6581 19.3904C17.9601 18.8871 18.9895 17.8577 19.4929 16.5558C19.7312 15.9389 19.8979 15.2349 19.9432 14.2055C19.9886 13.1722 20 12.843 20 10.2127C20 7.58231 19.9962 7.25308 19.9508 6.21984ZM18.2061 14.1298C18.1644 15.0759 18.0055 15.5869 17.8731 15.9275C17.5475 16.7715 16.8777 17.4413 16.0337 17.7669C15.693 17.8993 15.1784 18.0583 14.2359 18.0998C13.2141 18.1454 12.9076 18.1566 10.3227 18.1566C7.73771 18.1566 7.4274 18.1454 6.40924 18.0998C5.46308 18.0583 4.95215 17.8993 4.61153 17.7669C4.19152 17.6117 3.80921 17.3657 3.4989 17.044C3.1772 16.7298 2.9312 16.3513 2.77597 15.9313C2.6435 15.5907 2.48458 15.0759 2.44304 14.1336C2.3975 13.1118 2.38627 12.8051 2.38627 10.2202C2.38627 7.63524 2.3975 7.32493 2.44304 6.30691C2.48458 5.36075 2.6435 4.84982 2.77597 4.5092C2.9312 4.08904 3.1772 3.70688 3.50274 3.39642C3.81675 3.07473 4.19521 2.82872 4.61537 2.67364C4.95599 2.54118 5.47076 2.38225 6.41308 2.34056C7.43494 2.29518 7.74156 2.28379 10.3264 2.28379C12.9152 2.28379 13.2216 2.29518 14.2398 2.34056C15.186 2.38225 15.6969 2.54118 16.0375 2.67364C16.4575 2.82872 16.8398 3.07473 17.1501 3.39642C17.4718 3.71058 17.7178 4.08904 17.8731 4.5092C18.0055 4.84982 18.1644 5.36444 18.2061 6.30691C18.2515 7.32877 18.2629 7.63524 18.2629 10.2202C18.2629 12.8051 18.2515 13.1079 18.2061 14.1298Z" fill="#364556"/>
<path d="M10.3192 5.23572C7.57158 5.23572 5.34233 7.46482 5.34233 10.2125C5.34233 12.9603 7.57158 15.1894 10.3192 15.1894C13.0669 15.1894 15.296 12.9603 15.296 10.2125C15.296 7.46482 13.0669 5.23572 10.3192 5.23572ZM10.3192 13.4409C8.53667 13.4409 7.09081 11.9952 7.09081 10.2125C7.09081 8.42991 8.53667 6.9842 10.3192 6.9842C12.1018 6.9842 13.5475 8.42991 13.5475 10.2125C13.5475 11.9952 12.1018 13.4409 10.3192 13.4409Z" fill="#364556"/>
<path d="M16.654 5.03906C16.654 5.68068 16.1337 6.20093 15.4919 6.20093C14.8503 6.20093 14.33 5.68068 14.33 5.03906C14.33 4.39729 14.8503 3.8772 15.4919 3.8772C16.1337 3.8772 16.654 4.39729 16.654 5.03906Z" fill="#364556"/>
</svg>
