<svg width="22" height="13" viewBox="0 0 22 13" fill="none" xmlns="http://www.w3.org/2000/svg">
<path d="M17.1554 4.92875V1.23361C17.1554 0.953606 17.0289 0.685072 16.8039 0.48708C16.5789 0.289087 16.2738 0.177856 15.9555 0.177856H1.55778C1.23957 0.177856 0.934397 0.289087 0.709388 0.48708C0.48438 0.685072 0.357971 0.953606 0.357971 1.23361V11.7911C0.357971 12.0711 0.48438 12.3397 0.709388 12.5377C0.934397 12.7357 1.23957 12.8469 1.55778 12.8469H15.9555C16.2738 12.8469 16.5789 12.7357 16.8039 12.5377C17.0289 12.3397 17.1554 12.0711 17.1554 11.7911V8.09601L21.9546 12.319V0.705733L17.1554 4.92875Z" fill="#E4B820"/>
</svg>
