<svg width="29" height="18" viewBox="0 0 29 18" fill="none" xmlns="http://www.w3.org/2000/svg">
<path d="M28.4658 15.4462C28.4658 15.3308 28.3515 15.3308 28.3515 15.2155C27.8942 14.2926 26.8653 13.1389 25.4935 11.8699C24.8075 11.2931 24.4646 10.8316 24.2359 10.6009C23.893 10.1394 23.893 9.79332 24.0073 9.33186C24.1216 8.98576 24.5789 8.40892 25.3791 7.37064C25.8364 6.79381 26.0651 6.44773 26.408 6.10163C28.1228 3.79433 28.9231 2.29457 28.6944 1.60238L28.5801 1.48703C28.4658 1.37166 28.3515 1.2563 28.1228 1.2563C27.8942 1.14093 27.5512 1.14093 27.2083 1.2563H22.8641C22.7498 1.2563 22.7498 1.2563 22.5211 1.2563C22.4068 1.2563 22.2925 1.2563 22.2925 1.2563H22.1782H22.0639L21.9495 1.37165C21.8352 1.48702 21.8352 1.48701 21.8352 1.60238C21.3779 2.8714 20.8063 3.90968 20.2347 5.06333C19.8918 5.64016 19.5488 6.217 19.2058 6.67846C18.8629 7.13992 18.6342 7.48601 18.4056 7.71674C18.1769 7.94747 17.9483 8.06283 17.834 8.29356C17.7197 8.40893 17.491 8.5243 17.491 8.40893C17.3767 8.40893 17.2624 8.40893 17.2624 8.29356C17.1481 8.1782 17.0338 8.06283 16.9194 7.94746C16.8051 7.8321 16.8051 7.60137 16.6908 7.37064C16.6908 7.13991 16.6908 6.90918 16.6908 6.79381C16.6908 6.67845 16.6908 6.33236 16.6908 6.10163C16.6908 5.75554 16.6908 5.5248 16.6908 5.40943C16.6908 5.06334 16.6908 4.60189 16.6908 4.14043C16.6908 3.67897 16.6908 3.33286 16.6908 3.10213C16.6908 2.8714 16.6908 2.52531 16.6908 2.29458C16.6908 1.94848 16.6908 1.71775 16.6908 1.60238C16.6908 1.48701 16.5765 1.25629 16.5765 1.14093C16.4622 1.02556 16.3478 0.910193 16.2335 0.794828C16.1192 0.679462 15.8905 0.679466 15.7762 0.564101C15.2046 0.448736 14.5187 0.333374 13.7185 0.333374C11.8893 0.333374 10.6318 0.448743 10.1745 0.679473C9.94589 0.794838 9.71725 0.910196 9.60293 1.14093C9.37429 1.37166 9.37428 1.48703 9.4886 1.48703C10.0602 1.60239 10.5175 1.83311 10.7461 2.17921L10.8605 2.40995C10.9748 2.52532 10.9748 2.75604 11.0891 3.10213C11.2034 3.44823 11.2034 3.79432 11.2034 4.25578C11.2034 4.94797 11.2034 5.64017 11.2034 6.10163C11.2034 6.67846 11.0891 7.02454 11.0891 7.37064C11.0891 7.71673 10.9748 7.94747 10.8605 8.06284C10.7461 8.29357 10.7461 8.40893 10.6318 8.40893C10.6318 8.40893 10.6318 8.52429 10.5175 8.52429C10.4032 8.52429 10.2888 8.63966 10.0602 8.63966C9.94588 8.63966 9.71725 8.5243 9.60293 8.40893C9.37429 8.29357 9.14565 8.06284 9.03133 7.83211C8.80269 7.60138 8.57404 7.25527 8.3454 6.79381C8.11676 6.33235 7.77378 5.8709 7.54514 5.17871L7.31652 4.71725C7.2022 4.48652 6.97356 4.02506 6.74492 3.44823C6.51628 2.8714 6.28763 2.40995 6.05899 1.83312C5.94467 1.60239 5.83036 1.48702 5.71604 1.37165H5.60171C5.60171 1.37165 5.48738 1.2563 5.37306 1.2563C5.25874 1.2563 5.14443 1.14093 5.03011 1.14093H0.914567C0.457285 1.14093 0.228648 1.25629 0.114327 1.37165L0 1.48703C0 1.48703 0 1.60239 0 1.71775C0 1.83312 6.97586e-06 1.94848 0.114327 2.17921C0.68593 3.56359 1.37185 4.94798 2.05777 6.33236C2.74369 7.60137 3.42962 8.75503 3.88691 9.56259C4.45851 10.3701 4.91578 11.1777 5.48739 11.8699C6.05899 12.5621 6.40194 13.0235 6.51626 13.2543C6.7449 13.485 6.85922 13.6004 6.97354 13.7157L7.31652 14.0618C7.54516 14.2926 7.88811 14.6386 8.3454 14.9847C8.80268 15.3308 9.37427 15.6769 9.94588 16.023C10.5175 16.3691 11.2034 16.5999 11.8893 16.8306C12.6896 17.0613 13.3755 17.1767 14.0614 17.0613H15.7762C16.1192 17.0613 16.3478 16.946 16.5765 16.7152L16.6908 16.5998C16.6908 16.4845 16.8051 16.4845 16.8051 16.3691C16.8051 16.2538 16.8051 16.1384 16.8051 15.9077C16.8051 15.4462 16.8051 15.1001 16.9194 14.754C17.0338 14.4079 17.0338 14.1772 17.1481 13.9465C17.2624 13.7157 17.3767 13.6004 17.491 13.485C17.6054 13.3696 17.7197 13.2543 17.7197 13.2543H17.834C18.0626 13.1389 18.4056 13.2543 18.6342 13.485C18.9772 13.7157 19.3201 14.0618 19.5488 14.4079C19.7774 14.754 20.1204 15.1001 20.5777 15.5616C21.035 16.023 21.3779 16.3691 21.6066 16.4845L21.9495 16.7152C22.1782 16.8306 22.4068 16.946 22.7498 17.0613C23.0927 17.1767 23.3214 17.1767 23.55 17.1767L27.4369 17.0613C27.7799 17.0613 28.1228 16.946 28.3515 16.8306C28.5801 16.7152 28.6944 16.5999 28.6944 16.3691C28.6944 16.2538 28.6944 16.023 28.6944 15.9077C28.4658 15.6769 28.4658 15.5616 28.4658 15.4462Z" fill="#364556"/>
</svg>
