<svg width="19" height="16" viewBox="0 0 19 16" xmlns="http://www.w3.org/2000/svg">
<path d="M1.18186 8.01104L5.2052 9.51126L6.7736 14.5575C6.8418 14.8984 7.25095 14.9666 7.52372 14.762L9.77404 12.9209C9.97862 12.7163 10.3196 12.7163 10.5924 12.9209L14.6157 15.8531C14.8884 16.0577 15.2976 15.9213 15.3658 15.5803L18.3662 1.26004C18.4344 0.91908 18.0935 0.578124 17.7525 0.714508L1.18186 7.12454C0.772712 7.26093 0.772712 7.87465 1.18186 8.01104ZM6.56904 8.76114L14.4793 3.91952C14.6157 3.85133 14.7521 4.05591 14.6157 4.1241L8.13744 10.1932C7.93287 10.3978 7.72829 10.6705 7.72829 11.0115L7.52372 12.6481C7.52372 12.8527 7.18276 12.9209 7.11456 12.6481L6.29625 9.64764C6.09168 9.30668 6.22808 8.89753 6.56904 8.76114Z" fill="white"/>
</svg>
